<svg width="600" height="400" viewBox="0 0 600 400" fill="none" xmlns="http://www.w3.org/2000/svg">
  <!-- Background -->
  <rect width="600" height="400" fill="url(#gradient1)"/>
  
  <!-- Chat Interface -->
  <rect x="50" y="50" width="500" height="300" rx="20" fill="white" stroke="#E2E8F0" stroke-width="2"/>
  
  <!-- Chat Header -->
  <rect x="70" y="70" width="460" height="60" rx="10" fill="#F8FAFC"/>
  <circle cx="100" cy="100" r="15" fill="url(#gradient2)"/>
  <rect x="130" y="85" width="120" height="8" rx="4" fill="#64748B"/>
  <rect x="130" y="100" width="80" height="6" rx="3" fill="#94A3B8"/>
  
  <!-- Chat Messages -->
  <!-- User Message 1 -->
  <circle cx="120" cy="160" r="12" fill="#E2E8F0"/>
  <rect x="140" y="150" width="120" height="24" rx="12" fill="#F1F5F9"/>
  
  <!-- AI Response 1 -->
  <rect x="340" y="150" width="140" height="24" rx="12" fill="url(#gradient2)"/>
  <circle cx="490" cy="162" r="12" fill="url(#gradient2)"/>
  
  <!-- User Message 2 -->
  <circle cx="120" cy="200" r="12" fill="#E2E8F0"/>
  <rect x="140" y="190" width="100" height="24" rx="12" fill="#F1F5F9"/>
  
  <!-- AI Response 2 -->
  <rect x="340" y="190" width="160" height="24" rx="12" fill="url(#gradient2)"/>
  <circle cx="510" cy="202" r="12" fill="url(#gradient2)"/>
  
  <!-- Input Area -->
  <rect x="70" y="320" width="460" height="20" rx="10" fill="#F1F5F9"/>
  <circle cx="520" cy="330" r="8" fill="url(#gradient2)"/>
  
  <!-- Floating Elements -->
  <circle cx="80" cy="80" r="4" fill="#3B82F6" opacity="0.3"/>
  <circle cx="520" cy="120" r="6" fill="#10B981" opacity="0.3"/>
  <circle cx="90" cy="280" r="5" fill="#8B5CF6" opacity="0.3"/>
  
  <!-- Health Icons -->
  <g transform="translate(450, 80)">
    <circle cx="0" cy="0" r="20" fill="url(#gradient3)" opacity="0.1"/>
    <path d="M0 -8 L3 -3 L8 -3 L4 1 L5 6 L0 3 L-5 6 L-4 1 L-8 -3 L-3 -3 Z" fill="url(#gradient3)"/>
  </g>
  
  <g transform="translate(480, 200)">
    <circle cx="0" cy="0" r="15" fill="url(#gradient4)" opacity="0.1"/>
    <path d="M0 -6 L2 -2 L6 -2 L3 1 L4 5 L0 2 L-4 5 L-3 1 L-6 -2 L-2 -2 Z" fill="url(#gradient4)"/>
  </g>
  
  <!-- Gradients -->
  <defs>
    <linearGradient id="gradient1" x1="0%" y1="0%" x2="100%" y2="100%">
      <stop offset="0%" style="stop-color:#F8FAFC;stop-opacity:1" />
      <stop offset="100%" style="stop-color:#E2E8F0;stop-opacity:1" />
    </linearGradient>
    <linearGradient id="gradient2" x1="0%" y1="0%" x2="100%" y2="100%">
      <stop offset="0%" style="stop-color:#3B82F6;stop-opacity:1" />
      <stop offset="100%" style="stop-color:#10B981;stop-opacity:1" />
    </linearGradient>
    <linearGradient id="gradient3" x1="0%" y1="0%" x2="100%" y2="100%">
      <stop offset="0%" style="stop-color:#3B82F6;stop-opacity:1" />
      <stop offset="100%" style="stop-color:#8B5CF6;stop-opacity:1" />
    </linearGradient>
    <linearGradient id="gradient4" x1="0%" y1="0%" x2="100%" y2="100%">
      <stop offset="0%" style="stop-color:#10B981;stop-opacity:1" />
      <stop offset="100%" style="stop-color:#3B82F6;stop-opacity:1" />
    </linearGradient>
  </defs>
</svg> 