<svg width="300" height="600" viewBox="0 0 300 600" fill="none" xmlns="http://www.w3.org/2000/svg">
  <!-- Phone Frame -->
  <rect x="20" y="20" width="260" height="560" rx="40" fill="#1F2937" stroke="#374151" stroke-width="2"/>
  
  <!-- Screen -->
  <rect x="30" y="40" width="240" height="520" rx="30" fill="white"/>
  
  <!-- Status Bar -->
  <rect x="30" y="40" width="240" height="30" rx="30" fill="#1F2937"/>
  <text x="50" y="60" fill="white" font-family="Arial" font-size="12">9:41</text>
  <circle cx="250" cy="55" r="2" fill="white"/>
  <circle cx="255" cy="55" r="2" fill="white"/>
  <circle cx="260" cy="55" r="2" fill="white"/>
  
  <!-- App Header -->
  <rect x="30" y="70" width="240" height="60" fill="white"/>
  <circle cx="60" cy="100" r="15" fill="url(#gradient1)"/>
  <text x="85" y="95" fill="#1F2937" font-family="Arial" font-size="14" font-weight="bold">HealPrint AI</text>
  <text x="85" y="110" fill="#6B7280" font-family="Arial" font-size="10">Online • Responds instantly</text>
  
  <!-- Chat Messages -->
  <g transform="translate(30, 140)">
    <!-- User Message 1 -->
    <circle cx="20" cy="20" r="12" fill="#E5E7EB"/>
    <rect x="40" y="10" width="80" height="20" rx="10" fill="#F3F4F6"/>
    <text x="50" y="25" fill="#374151" font-family="Arial" font-size="8">I have skin issues</text>
    
    <!-- AI Response 1 -->
    <rect x="180" y="10" width="90" height="20" rx="10" fill="url(#gradient1)"/>
    <text x="190" y="25" fill="white" font-family="Arial" font-size="8">I can help! Let me ask</text>
    <circle cx="280" cy="20" r="12" fill="url(#gradient1)"/>
    
    <!-- User Message 2 -->
    <circle cx="20" cy="60" r="12" fill="#E5E7EB"/>
    <rect x="40" y="50" width="70" height="20" rx="10" fill="#F3F4F6"/>
    <text x="50" y="65" fill="#374151" font-family="Arial" font-size="8">I'm stressed</text>
    
    <!-- AI Response 2 -->
    <rect x="180" y="50" width="100" height="20" rx="10" fill="url(#gradient1)"/>
    <text x="190" y="65" fill="white" font-family="Arial" font-size="8">Stress affects health</text>
    <circle cx="290" cy="60" r="12" fill="url(#gradient1)"/>
    
    <!-- User Message 3 -->
    <circle cx="20" cy="100" r="12" fill="#E5E7EB"/>
    <rect x="40" y="90" width="60" height="20" rx="10" fill="#F3F4F6"/>
    <text x="50" y="105" fill="#374151" font-family="Arial" font-size="8">Poor diet</text>
    
    <!-- AI Response 3 -->
    <rect x="180" y="90" width="110" height="20" rx="10" fill="url(#gradient1)"/>
    <text x="190" y="105" fill="white" font-family="Arial" font-size="8">Nutrition is key</text>
    <circle cx="300" cy="100" r="12" fill="url(#gradient1)"/>
  </g>
  
  <!-- Input Area -->
  <rect x="30" y="520" width="240" height="40" rx="20" fill="#F9FAFB"/>
  <text x="50" y="540" fill="#9CA3AF" font-family="Arial" font-size="12">Type message...</text>
  <circle cx="270" cy="540" r="12" fill="url(#gradient1)"/>
  
  <!-- Health Icons -->
  <g transform="translate(50, 200)">
    <circle cx="0" cy="0" r="20" fill="url(#gradient2)" opacity="0.1"/>
    <path d="M0 -8 L3 -3 L8 -3 L4 1 L5 6 L0 3 L-5 6 L-4 1 L-8 -3 L-3 -3 Z" fill="url(#gradient2)"/>
  </g>
  
  <g transform="translate(200, 250)">
    <circle cx="0" cy="0" r="15" fill="url(#gradient3)" opacity="0.1"/>
    <path d="M0 -6 L2 -2 L6 -2 L3 1 L4 5 L0 2 L-4 5 L-3 1 L-6 -2 L-2 -2 Z" fill="url(#gradient3)"/>
  </g>
  
  <!-- Floating Elements -->
  <circle cx="80" cy="80" r="3" fill="#3B82F6" opacity="0.3"/>
  <circle cx="220" cy="120" r="4" fill="#10B981" opacity="0.3"/>
  <circle cx="70" cy="300" r="3" fill="#8B5CF6" opacity="0.3"/>
  
  <!-- Gradients -->
  <defs>
    <linearGradient id="gradient1" x1="0%" y1="0%" x2="100%" y2="100%">
      <stop offset="0%" style="stop-color:#3B82F6;stop-opacity:1" />
      <stop offset="100%" style="stop-color:#10B981;stop-opacity:1" />
    </linearGradient>
    <linearGradient id="gradient2" x1="0%" y1="0%" x2="100%" y2="100%">
      <stop offset="0%" style="stop-color:#3B82F6;stop-opacity:1" />
      <stop offset="100%" style="stop-color:#8B5CF6;stop-opacity:1" />
    </linearGradient>
    <linearGradient id="gradient3" x1="0%" y1="0%" x2="100%" y2="100%">
      <stop offset="0%" style="stop-color:#10B981;stop-opacity:1" />
      <stop offset="100%" style="stop-color:#3B82F6;stop-opacity:1" />
    </linearGradient>
  </defs>
</svg> 